<?xml version="1.0" encoding="UTF-8"?>
<svg id="Ebene_2" data-name="Ebene 2" xmlns="http://www.w3.org/2000/svg" viewBox="0 0 2700 1082.85">
  <defs>
    <style>
      .cls-1 {
        fill: #004b6a;
      }
    </style>
  </defs>
  <g id="Layer_1" data-name="Layer 1">
    <g>
      <path class="cls-1" d="m2646.58,443.37c-8.27-6.55-12.07-13.48-15.38-18.85.49-.37.67-.77.21-1.17.78-.18,8.93-3.46,5.22-5.09,1.18-.89,5.67-4.83,2.6-6.91.73-1.16,3.76-5.02.77-6.74.53-1.06,2.51-4.84.87-6.16,3.08-2.36,3.3-5,1.67-5.66,2.17-1.1,3.38-3.52,2.12-4.9,1.35-.29,6.06-4.62,3.87-5.6.78-.76,3.85-2.28,2.55-3.61,1.19-1.29,2.01-2.61,3.43-3.74-.17.12-.63.19-1.01.27-1.43.43-2.41.97-3.64,1.82-1.86-1.8-3.92,2.37-4.55,2.99-1.96-2.11-4.6,2.35-5.2,5.01-2.49-1.23-2.85,4.12-3.13,4.98-1.97-1.12-2.46,4.19-2.53,4.83-1.88-.68-1.72,4.49-1.73,5.33-2.4-1.59-2.44,4.34-2.53,4.95-2.04-1.44-3.95,4.21-4.2,4.8-.64-.82-1.65-.41-2.66.41-.09-.3-.27-.55-.61-.72,1.08-2.16,5.33-9.66,2.05-11.58.09-1.54,1.69-12.19-1.73-12.01.12-1.07,1.92-14.15-1.52-12.72.34-1.15,3.91-11.71.69-11.68.49-1.02,6.04-10.03,2.35-10.16.77-1.27,5.78-8.93,3.43-9.88.54-1.06,5.09-9.61,2.24-9.98.55-1.6,5.26-10.08,1.83-10.84,1.95-4.65,3.74-14.19-.03-13.06.02-1.6,2.06-10.08-1.33-9.32-.32-2.58-.71-4.42-1.6-6.59-.27-.53-.62-1.12-.66-1.48.23,3.2-.26,6.07-.4,9.28-2.43.64-1.07,6.19-1.07,8.16-2.92-.84-2.7,10.68-1.74,12.55-2.44.76-3.62,5.7-2.68,9.65-2.09-.72-4.38,3.51-3.8,10.32-2.73.26-4.48,8.07-5,10.23-4.34-.56-5.2,8.48-5.64,11.01-.27,0-.52.03-.76.1,1.31-7.03.58-8.41-1.6-8.12,5.64-13.21,1.15-21.32-1.31-19.06,3.59-12.83-1.13-19.62-3.21-18.49,2.83-14.15-.57-16.42-3.11-15.85,1.04-5.66.85-16.04-1.44-14.91,1.86-5.66,1.38-17.55-1.07-15.28,1.32-9.25.94-14.43-1.13-14.25,1.89-14.15-.33-19.62-1.65-17.92,0-2.64.33-11.7-3.02-11.04-.38-3.4.61-13.59.61-13.59-.12.78-.28,1.59-.44,2.42.13-.85.27-1.67.44-2.42,0,0-2.64,9.81-3.02,13.21-3.77-2.64-3.4,8.68-3.4,11.32-1.32-1.7-3.4,4.15-1.51,18.3-2.08-.19-2.08,5.85-.76,15.09-2.45-2.26-2.2,8.49-.35,14.15-2.29-1.13-2.48,9.25-1.44,14.91-2.55-.57-5.94,1.7-3.11,15.85-2.08-1.13-6.79,5.66-3.21,18.49-2.36-2.18-6.62,5.28-1.87,17.65-.67.21-1.34.45-1.98.72-1.55.63-3.02,1.41-4.41,2.29.67-5.75-.81-11.39-2.48-10.09.2-2.48-1.74-7.52-3.82-12.01.21-3.72-.13-7.47-1.42-10.9-.34-.96-.79-1.87-1.26-2.76-.5-.87-1.03-1.72-1.64-2.5-1.23-1.56-2.6-2.97-4.26-4.04-.1-.07-.24-.05-.32.04-.1.1-.09.26.01.36l.02.02c1.35,1.26,2.44,2.82,3.26,4.45.41.82.74,1.67,1.03,2.52.26.87.5,1.73.63,2.61.16.97.24,1.95.25,2.92-.34-.59-.6-1.03-.77-1.27,0,0,.3,1.11.72,2.81-.02.27-.04.55-.07.82-.2,1.75-.66,3.45-1.28,5.09-1.24,3.29-3.18,6.28-5.3,9.1-1.05,1.42-2.17,2.79-3.29,4.17-1.14,1.41-2.36,2.9-3.48,4.4-2.28,3-4.5,6.1-6.53,9.45-1.01,1.67-1.98,3.41-2.86,5.22-.89,1.8-1.67,3.69-2.4,5.6-.68,1.93-1.3,3.89-1.79,5.87-.47,1.99-.87,3.97-1.15,5.96-.16.99-.26,1.98-.38,2.97-.07.49-.09.99-.14,1.48l-.14,1.47c-.04.98-.14,1.96-.18,2.94-.02.98-.1,1.95-.11,2.92l-.24,11.62v1.97c-.49-1.66-.98-3.32-1.52-4.97-2.07-6.49-4.53-12.87-7.38-19.09l-1.1-2.32c-.36-.77-.74-1.55-1.14-2.31-.78-1.53-1.61-3.05-2.46-4.55-1.75-2.99-3.62-5.92-5.77-8.69-.53-.7-1.09-1.38-1.64-2.06-.58-.67-1.15-1.33-1.76-1.98-1.2-1.3-2.46-2.55-3.82-3.72-1.35-1.17-2.78-2.27-4.3-3.25-1.52-.98-3.12-1.86-4.82-2.54-3.36-1.41-7.11-2.08-10.72-1.71-3.6.38-7.03,1.72-9.65,4.03-.08.07-.11.19-.06.3.06.13.21.18.34.12h.02c1.48-.7,3.09-1.12,4.67-1.37,1.59-.24,3.17-.28,4.72-.13,3.1.3,6.01,1.37,8.64,2.92,2.63,1.56,5,3.59,7.16,5.85,2.15,2.27,4.1,4.78,5.91,7.41,3.6,5.28,6.63,11.03,9.42,16.96,1.18,2.57,2.31,5.16,3.38,7.78-1.72-.17-3.48-.08-5.21.24-.19.03-.37.08-.55.12-1.09-1.26-2.22-2.49-3.42-3.67-1.57-1.52-3.21-2.97-4.99-4.32-1.77-1.36-3.77-2.49-5.96-3.31-2.2-.81-4.57-1.32-7.04-1.47-2.45-.15-5.1.1-7.54,1.21-1.21.54-2.39,1.19-3.51,1.97-1.11.78-2.13,1.71-2.89,2.77-.78,1.06-1.28,2.22-1.7,3.36-.41,1.14-.69,2.3-.85,3.44-.31,2.29-.27,4.49-.1,6.71.18,2.21.55,4.41,1.11,6.54,1.12,4.26,2.98,8.25,5.32,11.81,2.09,3.23,4.62,6.09,7.32,8.68-.22,1.03-.44,2.06-.63,3.09-.17.84-.3,1.67-.43,2.51l-.39,2.51c-.95,6.7-1.5,13.43-1.64,20.17-.04,1.71-.05,3.42-.03,5.13l-.57-1.86-3.5-10.95c-.28-.92-.63-1.82-.92-2.74-.31-.91-.67-1.82-.99-2.73l-.55-1.36c-.18-.45-.34-.92-.55-1.36-.4-.9-.77-1.81-1.2-2.7-.82-1.8-1.76-3.57-2.76-5.32-1.02-1.74-2.15-3.42-3.34-5.06-1.22-1.6-2.5-3.17-3.85-4.63-1.34-1.46-2.75-2.84-4.18-4.14-2.86-2.6-5.84-4.92-8.84-7.12-1.48-1.1-3.06-2.17-4.53-3.19-1.45-.99-2.9-1.97-4.29-3.02-2.8-2.08-5.49-4.36-7.58-7.14-1.05-1.38-1.97-2.87-2.65-4.47-.69-1.6-1.14-3.29-1.36-5.04-.12-.87-.14-1.76-.14-2.65.04-.89.11-1.79.27-2.68.32-1.77.91-3.56,1.84-5.13v-.02c.08-.12.04-.27-.08-.34-.11-.06-.24-.04-.31.05-1.27,1.48-2.17,3.2-2.9,5.03-.36.91-.63,1.87-.85,2.83-.19.97-.36,1.96-.42,2.97-.29,4.03.65,8.11,2.16,11.92.76,1.92,1.71,3.73,2.74,5.51.54.87,1.07,1.76,1.67,2.58.29.42.58.85.89,1.26l.94,1.2c1.27,1.6,2.65,3.08,4.1,4.48.36.37.72.68,1.07,1,.35.32.7.65,1.06.96.71.64,1.43,1.25,2.16,1.86,2.9,2.43,5.9,4.68,8.87,6.8,2.98,2.13,5.92,4.13,8.65,6.35,2.71,2.23,5.22,4.74,7.25,7.68,1.04,1.45,1.93,3.03,2.77,4.63.8,1.63,1.54,3.3,2.16,5.02,1.27,3.44,2.09,7.06,2.64,10.72.25,1.84.55,3.67.66,5.53.07.85.08,1.71.08,2.57-.07,0-.14-.02-.21-.02-.15-.26-.31-.52-.46-.78-1.76-2.86-3.55-5.71-5.45-8.49-3.78-5.57-7.91-10.92-12.36-16.02l-1.7-1.89c-.56-.63-1.13-1.26-1.73-1.87-1.17-1.24-2.38-2.44-3.61-3.63-2.49-2.34-5.09-4.6-7.91-6.62-.7-.51-1.42-1-2.13-1.49-.73-.47-1.47-.94-2.22-1.38-1.5-.89-3.05-1.73-4.66-2.45-1.61-.73-3.27-1.37-4.99-1.87-1.71-.51-3.48-.88-5.28-1.06-3.58-.39-7.32.02-10.63,1.39-3.3,1.37-6.18,3.61-8.02,6.53-.07.12-.04.27.08.34.1.06.22.05.3-.02l.02-.02c1.21-1.07,2.62-1.92,4.05-2.6,1.44-.67,2.93-1.16,4.44-1.45,3.02-.59,6.08-.39,9.01.34,2.93.74,5.74,2,8.42,3.53,2.68,1.55,5.23,3.37,7.68,5.36,4.9,3.99,9.38,8.59,13.69,13.42,2.13,2.44,4.22,4.91,6.23,7.46,1.03,1.26,1.99,2.57,2.99,3.85.95,1.32,1.95,2.6,2.87,3.94,1,1.39,1.99,2.8,2.96,4.22-2.29-.41-4.33-.82-6.06-1.12-3.07-3.03-6.5-5.76-10.34-8.03-1.49-.88-3.05-1.67-4.68-2.38-1.62-.73-3.39-1.24-5.28-1.43-1.89-.19-3.88-.07-5.89.37-1,.22-2.01.52-3.01.96-.99.44-1.97,1.02-2.81,1.77-.84.75-1.62,1.57-2.32,2.45-.72.87-1.33,1.84-1.74,2.84-.41,1-.57,2.03-.63,3-.07.98-.04,1.93.1,2.84.26,1.83.82,3.49,1.44,5.14.64,1.64,1.41,3.23,2.29,4.73,1.76,3.01,4.02,5.66,6.54,7.9,2.51,2.25,5.3,4.07,8.19,5.57,2.9,1.49,5.89,2.7,8.95,3.6,3.07.89,6.16,1.58,9.32,1.88.14.01.26-.09.27-.23.01-.12-.06-.23-.18-.26h-.01c-2.96-.91-5.84-2.09-8.58-3.47-2.73-1.39-5.36-2.94-7.75-4.75-2.4-1.79-4.56-3.83-6.4-6.05-1.84-2.22-3.31-4.66-4.35-7.21-.52-1.28-.93-2.59-1.24-3.92-.31-1.32-.47-2.71-.63-3.97l-.25-1.82c-.09-.59-.1-1.12-.23-1.65-.11-.53-.25-1.07-.24-1.57.02-.5.24-.92.61-1.15.72-.47,1.78-.53,2.89-.19.55.16,1.11.42,1.67.69.56.28,1.11.62,1.67.92,1.11.65,2.26,1.26,3.46,1.86,1.19.61,2.37,1.32,3.53,2.08,2.33,1.52,4.58,3.28,6.77,5.15,1.09.93,2.16,1.91,3.22,2.9,1.05,1,2.09,2.02,3.1,3.07,2.03,2.1,3.99,4.31,5.8,6.64.89,1.15,1.81,2.43,2.71,3.65l1.36,1.85,1.33,1.88c.58.82,1.15,1.64,1.72,2.47-1.67,2.63-7.21,4.94-19.28,7.47-35.98,7.54-28.91-15.08-49.45,7.54-20.53,22.62-8.24,24.51-34.39,24.51-12.12,0-27.8,2.43-42.41,5.79-1.52-.2-11.27-1.7-11.64-7.31-.13-1.95.82-4.55,6.1-5.94,2.17-.57,4.38-.92,6.72-1.28,7.41-1.16,15.8-2.47,25.84-11.88,3.59-3.36,7.37-5.07,11.26-5.07,3.56,0,6.56,1.43,8.75,2.46.82.39,2.02.96,2.54,1.05.24-.14.47-.37.43-.76-.08-.85-1.46-2.75-6.13-3.81-2.2-.5-5.27-1.48-6.58-4.16-1.44-2.95-.02-5.97,1.63-9.47,1.32-2.8,2.96-6.29,3.65-10.6l.03-.17c1.62-7.49.71-10.11.02-11-.2-.26-.72-.93-2.66-1.05-1.58,1-3.93,7.77-5.48,12.27-2.38,6.86-5.07,14.63-9.17,19.62-8.22,9.98-15.56,16.91-24.64,18.25l-.95.14-.87-.4c-1.95-.9-2.47-2.4-2.61-3.21-.43-2.57,1.48-4.41,3.89-6.73,2.34-2.25,5.26-5.06,6.22-8.38,2.89-9.95,4.43-28.87.81-32.52-1.15-1.16-1.74-1.22-1.75-1.22-.28.22-1.13,2.03-.86,4.41.51,4.58,1.17,23.53-4.87,32.6-2.51,3.76-5.28,6.43-7.73,8.79-2.84,2.73-5.08,4.89-6.12,7.89l-.32.92-.77.59c-3.72,2.83-7.54,4.38-10.75,4.38-2.46,0-4.52-.95-5.8-2.68-1.63-2.2-1.85-5.31-.65-9.25,3.06-10.1,16.42-34.31,20.91-39.7,4.19-5.03,10.55-16.63,12.4-20.06,2.12-3.95,8.79-12.32,17.63-18.01,4.14-2.66,4.94-6.9,5.08-8.13.18-1.57-.08-2.61-.3-3.04-1.16.27-3.07,2.39-4.37,3.83-2.02,2.24-4.12,4.55-6.78,5.31-.42.12-.84.18-1.26.18h0c-1.17,0-2.24-.48-2.99-1.36-1.63-1.89-1.24-4.57-.6-9.02.6-4.15,1.51-10.42-.41-13.04-1-1.36-1.59-1.49-1.59-1.5-.48.18-1.69,2.2-1.56,4.34.02.32.52,32.23-7.86,36.42l-2.07,1.04-1.64-1.64c-6.16-6.16-6.13-15.01-5.57-21.13.1-1.1-.05-1.99-.4-2.37-.24-.26-.64-.32-.94-.32-.45,0-.94.13-1.37.35-1.45,2.39-1.84,15.12,1.16,25.2.35,1.17.67,2.23.97,3.21,2.49,8.19,3.52,11.59-.36,16.52-.75.95-1.42,2.02-2.06,3.06-1.67,2.67-3.55,5.7-6.97,5.7-1.15,0-2.3-.38-3.41-1.11-2.39-1.59-3.51-5.78-5.82-15.11-1.63-6.58-4.66-18.82-7.41-20.5-1.14-.69-1.71-.73-1.81-.73-.45.32-1.03,2.38-.86,4.7.13.68,1.4,3.34,2.53,5.68,4,8.35,10.7,22.31,9.36,34.37-1.76,15.79-5.05,23.42-10.38,24.01l-.18.02h-.24c-.79,0-1.96-.24-3.09-1.42-3.57-3.71-7.29-19.76-7.01-27.44.24-6.79-.04-17.2-5.24-29.05-4.65-10.59,3.92-19.43,9.6-25.28,1.74-1.8,3.55-3.66,4.13-4.78,2.44-4.62,2.68-7.41,2.42-8.07-.03,0-.17-.03-.18-.03-.62,0-1.79.85-4.14,4.87-.94,1.61-1.57,2.68-2.95,3.14l-.5.16h-1.9s-.99-1-.99-1c-1.18-1.22-1.15-2.4-1-7.4.09-3.18.31-10.52-.49-12.39-.31-.24-.74-.38-1.17-.38-1.74,0-2.12,2.2-2.21,3.15l-.16,1.93c-1.81,21.52-3.38,30.6-5.79,33.5-1.52,1.83-3.49,2.79-5.68,2.79-4.32,0-8.9-3.76-13.98-11.5-2.95-4.49-4.9-7.15-6.19-8.7.25,4.42,2.78,12.49,9.51,19.94l2.03,2.25-2.13,2.16c-1.13,1.14-2.13,2.46-2.99,3.92-.6,1.02-2.18,3.72-5,3.72h0c-3.34,0-4.65-3.29-6.02-6.77-1.07-2.7-2.68-6.77-4.58-6.98-.23-.03-.45-.04-.65-.04s-.35.01-.45.03c-.27,1.39,1.21,5.37,1.72,6.73.16.43.31.83.44,1.19,1.43,4.01,4.42,21.49,2.68,27.76-.68,2.45-1.98,3.69-3.87,3.69h0c-2.28,0-3.3-1.84-4.29-3.63-1.23-2.22-3.1-5.58-6.52-6.53-5.55-1.53-9.32-4.64-12.08-6.91-.78-.64-1.8-1.49-2.4-1.84-.04.07-.08.18-.1.34-.12,1.13,1.03,3.44,4.64,6.27,2.02,1.58,19.83,15.68,21.75,23.84.43,1.46,4.62,6.5,7.68,10.19,9.42,11.34,13.36,16.74,11.57,20.85-1.02,2.33-2.98,3.66-5.39,3.66-2.22,0-6.09-.98-14.1-9.41-1.47-1.55-3.25-4.09-5.5-7.3-5.82-8.31-15.56-22.22-24.12-22.22-.26,0-.53.01-.79.04-.45.05-.83.1-1.14.16,1.19,1.43,3.53,3.55,5.22,5.08,3.85,3.49,8.21,7.44,10.33,11.55,4.09,7.94,5.92,9.55,6,9.61-.18-.16-.28-.19-.29-.19l-3.21,5.57c-2.97-1.71-8.82-4.41-11.82-4.41-.12,0-.22,0-.3.01.76,1.13,3.12,3.3,7.91,5.7,6.19,3.09,15.72,7.26,19.53,8.9,1.54.66,2.59,2.11,2.74,3.79.15,1.67-.63,3.28-2.02,4.21-1.51,1-3.61,2.09-6.37,2.95-23.32-5.98-44.78-5.5-50.87,0-8.36,7.54-52.32,16.97-60.34,0-8.02-16.97-46.79-43.36-35.4-1.89s-.32,60.49-8.47,71.72c-8.15,11.23-3.27,55.45-7.29,76.62-4.02,21.17-40.76,29.4-57.23,32.37-16.47,2.97-42.89,17.5-66.24,6.5-23.35-11.01-4.16-24.1-35.55-11.88-31.39,12.22-61.9-1.54-74.86-1.72-12.96-.17-34.96-.71-36.96,7.1s-18,36.12-46,37.04c-28,.93-55.01,4.6-50.5,19.73,4.5,15.13-6.15,25.29-15.82,32.46-9.67,7.17-68.54,34.68-94.02,32.28-25.47-2.4-41.62-5.7-43.31,13.08-1.69,18.78-1.59,24.29-28.07,36.9-26.49,12.61-48.68,83.14-89.48,86.98-40.79,3.83-46.79-.18-48.79,13.14-2,13.32-33.04,13.62-24.52,31.38,8.52,17.76-28.15,56.61-28.15,56.61l1375.67-.21V437.96s-35.84,19.33-53.42,5.41Zm-331.8,98.69c1.58,0,3.15.19,4.71.52-8.06,2.07-15.5,4.36-21.47,6.6,3.98-3.96,9.86-7.11,16.76-7.11Zm-70.48-40.39l-.16.02h-.23c-1.25,0-2.39-.58-3.21-1.63-3.46-4.43-1.84-22.52.16-30.51,1.49-5.94,5.05-10.84,7.91-14.77.42-.57.83-1.13,1.21-1.68l1.92-2.71,2.64,2.01c.73.55,1.47,1.1,2.26,1.63,3.51,2.38,6.46,5.51,8.74,9.3,5.94,9.83,6.19,21.9,5.81,28.23-.15,2.42.15,4.81.88,7.12,9.9,31.23,8.29,33.85,7.33,35.42-.59.96-1.5,1.58-2.58,1.76-.25.04-.51.06-.8.06-5.82,0-19.34-12.63-21.5-17.25-3.67-7.87-3.11-17.08,1.71-28.17,2.67-6.14,2.78-9.82,2.52-11.42-1.51,1.74-3.85,6.65-5.59,10.29-3.96,8.29-5.84,11.97-9.03,12.29Zm-1.14,42.42l1.32-.35,1.17.71c6.95,4.21,15.09,9.15,17.86,14.57-3.03-1.3-6.69-2.99-11.18-5.15-6.31-3.04-12.86-5.53-19.36-7.53,4.53-.86,6.63-1.31,10.2-2.25Zm356.97-147.78c.88-1.75,2.09-3.85,3.02-5.74.51,2.82,2.55,6.95,2.83,7.74-2.31,1.41.66,7.75,1.13,9.7-2.3.51-.33,5.79-.08,7.38-.06.03-.11.06-.17.09-1.47.03-2.94.05-4.39.06,2.79-5.9-.2-7.23-3.49-6.76,3.62-5.09,4.53-11.67,1.15-12.48Zm-112.67,73.68c-.05-4.16.01-8.32.21-12.47.05-1.63.18-3.25.26-4.87.14-1.62.23-3.24.41-4.85.29-3.23.69-6.45,1.15-9.65.2-1.33.42-2.66.66-3.98,1.5,1.12,3.03,2.17,4.61,3.16.87.54,1.74,1.06,2.62,1.57-.38.62-.76,1.24-1.12,1.87-4.17,7.53-6.63,15.69-7.87,23.94-.27,1.75-.46,3.51-.61,5.28-.1,0-.21.02-.32.02Zm14.42-66.29c.95,1.21,1.87,2.46,2.77,3.73,2.16,3.07,4.14,6.29,5.98,9.61,1.6,2.93,3.09,5.93,4.41,9.03-1.5.15-2.95.53-4.29,1.01-2.3.83-4.4,1.99-6.26,3.37-1.85,1.39-3.43,3.03-4.72,4.81-.5.68-.96,1.38-1.42,2.08-.77-.6-1.53-1.22-2.27-1.84-1.84-1.56-3.6-3.19-5.27-4.9.76-3.8,1.68-7.53,2.84-11.17.97-3,2.11-5.92,3.52-8.68,1.31-2.55,2.85-4.95,4.71-7.05Zm-4.33,64.73c.13-.67.26-1.33.41-1.99.81-3.66,1.78-7.28,2.97-10.79.6-1.76,1.21-3.5,1.92-5.19.69-1.7,1.43-3.37,2.26-4.98,1.59-3.27,3.66-6.13,5.47-9.01.93-1.43,1.92-2.81,3.12-3.86,1.01-.87,2.18-1.45,3.33-1.53l.64,1.74c.68,1.85,1.38,3.71,1.99,5.58,1.53,4.41,2.94,8.86,4.25,13.35-8.44,9.56-17.58,14.44-26.36,16.68Zm57.7-92.56c.25.77.51,1.5.76,2.14-3.87-.94-2.37,6.04,0,10.38-3.09-.79-2.37,2.36-.19,6.26-.76.7-1.49,1.42-2.18,2.16-4.75,5.11-8.26,11.01-10.82,17.21-1.28,3.1-2.3,6.29-3.18,9.5-.44,1.63-.76,3.16-1.14,4.74l-.54,2.35-.47,2.37c-.09.44-.17.89-.26,1.33-.02-.22-.05-.45-.07-.67l-.31-2.87-.16-1.44c-.06-.46-.12-.93-.2-1.39-.12-.77-.28-1.53-.45-2.29.1-.42.21-.84.31-1.25,1.62-6.4,3.49-12.73,5.66-18.95.51-1.56,1.1-3.1,1.65-4.65.6-1.53,1.15-3.08,1.79-4.59,1.21-3.05,2.53-6.05,3.89-9.03,1.83-3.88,3.77-7.66,5.89-11.3Zm-3.54,42.25c.68-1.31,1.4-2.6,2.13-3.87.75-1.26,1.5-2.51,2.29-3.73.85-1.31,1.73-2.59,2.64-3.83.54.66,1.16,1.35,1.86,2.08-4.07,1.66-2.15,4.6,1.83,8.09-.14.06-.28.13-.41.19-.36.03-.61.16-.76.36-3.87,1.87-8.29,4.64-13.25,8.71,1.08-2.74,2.32-5.41,3.67-7.99Zm18.49-60.1c.26,2.48,1,6.17,2.3,11.61-.96-.68-1.94-.68-2.88.45.82-4.72-1.07-6.42-2.39-5.47.22-1.56.27-3.08.22-4.44.88-.77,1.79-1.49,2.75-2.15Zm-12.21-15.86c-.17-.13-.33-.23-.48-.31.13-.45.25-.9.37-1.34.06.59.1,1.14.11,1.65Zm-27.79,52.7c.11-1.85.34-3.68.65-5.49.35-1.8.76-3.58,1.35-5.29,1.12-3.44,2.84-6.59,4.82-9.54,2.01-2.94,4.29-5.73,6.56-8.65,2.27-2.92,4.53-5.95,6.65-9.15.53-.8,1.05-1.6,1.56-2.43.26-.41.5-.82.75-1.24.24-.41.5-.82.75-1.28.8-1.41,1.51-2.87,2.16-4.36.11,1.66.39,3.63.84,5.84-3.59-2.92-2.12,5.48-.94,10.7-.08.1-.17.19-.25.29-.55.68-1.11,1.36-1.64,2.06-2.16,2.77-4.03,5.71-5.77,8.69-.85,1.51-1.68,3.02-2.46,4.55-.4.76-.77,1.53-1.14,2.31l-1.1,2.32c-2.85,6.22-5.32,12.6-7.38,19.09-1.05,3.24-1.95,6.52-2.84,9.8-.11.44-.22.87-.33,1.31-.29-.95-.56-1.9-.76-2.85-.43-1.84-.66-3.7-.95-5.55-.52-3.71-.77-7.45-.53-11.15Zm-16.02,1.93c.21-.03.42-.04.63-.07.55,1.35,1.05,2.71,1.58,4.06.55,1.55,1.14,3.08,1.65,4.65,1.79,5.14,3.37,10.36,4.78,15.63-1-2.87-2.12-5.7-3.42-8.47-2.45-5.23-5.44-10.24-9.07-14.85,1.23-.44,2.52-.77,3.85-.96Zm-32.8,20.88c-1.69-3.36-2.84-6.92-3.35-10.5-.26-1.79-.34-3.6-.28-5.38.06-1.78.29-3.6.59-5.27.14-.84.28-1.65.44-2.43.16-.78.38-1.5.54-2.21.17-.71.31-1.44.62-2.08.29-.65.79-1.16,1.42-1.41,1.27-.49,2.81-.3,4.27.36,1.46.67,2.82,1.73,4.13,2.85,2.58,2.28,5.41,4.45,7.89,7.16.41.43.81.89,1.22,1.34-1.28,1.06-2.47,2.23-3.54,3.48-1.17,1.35-2.21,2.8-3.17,4.29-.96,1.49-1.8,3.03-2.57,4.6-.39.78-.75,1.58-1.11,2.37-.33.8-.67,1.6-.98,2.41-.88,2.24-1.6,4.52-2.23,6.81-1.48-2.05-2.8-4.19-3.91-6.4Z"/>
      <path class="cls-1" d="m916.03,925.57c-30.97-26.28-31.2-42.25-36.97-48.95-5.77-6.71-64.66-22.72-75.74-28.59-11.08-5.86-20.32-6.18-28.75-12.32-8.43-6.14-13.33-31.5-27.91-31.78-.22,0-.45-.02-.69-.03.75-.44,1.49-.89,2.22-1.36,2.71-1.75,5.27-3.78,7.65-6.06,2.37-2.29,4.55-4.86,6.35-7.76,1.79-2.89,3.23-6.11,4.07-9.54.42-1.71.71-3.47.86-5.24.13-1.78.19-3.55-.08-5.4-.13-.92-.38-1.86-.72-2.79-.34-.92-.79-1.88-1.47-2.73-.68-.85-1.55-1.61-2.5-2.25-.94-.65-1.92-1.22-2.96-1.71-1.03-.49-2.15-.77-3.23-.91-1.09-.13-2.16-.14-3.19-.06-2.07.15-4.04.61-5.82,1.33-1.78.72-3.35,1.73-4.71,2.9-1.38,1.16-2.66,2.37-3.85,3.65-4.75,5.11-8.26,11.01-10.82,17.21-1.28,3.1-2.3,6.29-3.18,9.5-.44,1.63-.76,3.16-1.14,4.74l-.29,1.26c-.52-.15-1.03-.3-1.56-.45-.05-.38-.1-.76-.16-1.13-.12-.77-.28-1.53-.45-2.29.1-.42.21-.84.31-1.25,1.62-6.4,3.49-12.73,5.66-18.95.51-1.56,1.1-3.1,1.65-4.65.6-1.53,1.15-3.08,1.79-4.59,1.21-3.05,2.53-6.05,3.89-9.03,2.79-5.93,5.82-11.67,9.42-16.96,1.8-2.64,3.75-5.14,5.91-7.41,2.16-2.26,4.52-4.29,7.16-5.85,2.63-1.55,5.54-2.63,8.64-2.92,1.55-.15,3.13-.11,4.72.13,1.58.25,3.19.67,4.67,1.35h.02c.1.06.22.03.3-.05.09-.1.08-.26-.02-.36-2.62-2.3-6.06-3.65-9.65-4.03-3.61-.38-7.35.3-10.72,1.71-1.7.69-3.3,1.56-4.82,2.54-1.53.97-2.95,2.08-4.3,3.25-1.36,1.16-2.62,2.42-3.82,3.72-.6.65-1.18,1.31-1.76,1.98-.55.68-1.11,1.36-1.64,2.06-2.16,2.77-4.03,5.71-5.77,8.69-.85,1.51-1.68,3.02-2.46,4.55-.4.76-.77,1.53-1.14,2.31l-1.1,2.32c-2.85,6.22-5.32,12.6-7.38,19.09-1.05,3.24-1.95,6.52-2.84,9.8-.11.44-.22.87-.33,1.31-.29-.95-.56-1.9-.76-2.85-.43-1.84-.66-3.7-.95-5.55-.52-3.71-.77-7.45-.53-11.15.11-1.85.34-3.68.65-5.49.35-1.8.76-3.58,1.35-5.29,1.12-3.44,2.84-6.59,4.82-9.54,2.01-2.95,4.29-5.73,6.56-8.65,2.27-2.92,4.53-5.95,6.65-9.15.53-.8,1.05-1.6,1.56-2.42.26-.41.5-.82.75-1.24.24-.41.5-.82.75-1.28,1-1.77,1.91-3.61,2.68-5.53l.56-1.44c.18-.48.33-.98.5-1.47.34-.97.6-1.99.87-2.98.49-2.02.89-4.06,1.08-6.13.37-4.12.1-8.36-1.34-12.18-.34-.96-.79-1.87-1.26-2.76-.5-.87-1.03-1.72-1.64-2.5-1.23-1.56-2.6-2.97-4.26-4.04-.1-.06-.24-.05-.32.04-.09.1-.09.26.01.36l.02.02c1.35,1.26,2.44,2.82,3.26,4.45.41.82.74,1.67,1.03,2.52.26.87.5,1.73.63,2.61.29,1.76.34,3.54.13,5.28-.2,1.75-.66,3.45-1.28,5.09-1.24,3.29-3.18,6.28-5.3,9.1-1.05,1.42-2.17,2.79-3.29,4.17-1.14,1.41-2.36,2.9-3.48,4.4-2.28,3-4.5,6.1-6.53,9.45-1.01,1.67-1.98,3.41-2.86,5.22-.89,1.8-1.67,3.69-2.4,5.6-.68,1.93-1.3,3.89-1.79,5.87-.47,1.99-.87,3.97-1.15,5.96-.16.99-.26,1.98-.38,2.97-.07.49-.09.99-.14,1.48l-.14,1.47c-.04.98-.14,1.96-.18,2.94-.02.98-.1,1.95-.11,2.92l-.24,11.62v1.97c-.49-1.66-.98-3.32-1.52-4.97-2.07-6.49-4.53-12.87-7.38-19.09l-1.1-2.32c-.36-.77-.74-1.55-1.14-2.31-.78-1.53-1.61-3.05-2.46-4.55-1.75-2.99-3.62-5.92-5.77-8.69-.53-.7-1.09-1.38-1.64-2.06-.58-.67-1.15-1.33-1.76-1.98-1.2-1.3-2.46-2.55-3.82-3.72-1.35-1.17-2.78-2.27-4.3-3.25-1.52-.98-3.12-1.86-4.82-2.54-3.36-1.41-7.11-2.08-10.72-1.71-3.6.38-7.03,1.72-9.65,4.03-.08.07-.11.19-.06.3.06.13.21.18.34.12h.02c1.48-.7,3.09-1.12,4.67-1.37,1.59-.24,3.17-.28,4.72-.13,3.1.3,6.01,1.37,8.64,2.92,2.63,1.56,5,3.59,7.16,5.85,2.15,2.27,4.1,4.77,5.91,7.41,3.6,5.28,6.63,11.03,9.42,16.96,1.37,2.98,2.69,5.98,3.89,9.03.63,1.51,1.19,3.06,1.79,4.59.55,1.55,1.14,3.08,1.65,4.65,1.79,5.14,3.37,10.36,4.78,15.63-1-2.87-2.12-5.7-3.42-8.47-3.57-7.64-8.3-14.85-14.51-20.96-1.57-1.52-3.21-2.97-4.99-4.32-1.77-1.36-3.77-2.49-5.96-3.31-2.2-.81-4.57-1.32-7.04-1.47-2.45-.15-5.1.1-7.54,1.21-1.21.54-2.39,1.19-3.51,1.97-1.11.78-2.13,1.71-2.89,2.77-.78,1.06-1.28,2.22-1.7,3.36-.41,1.14-.69,2.3-.85,3.44-.31,2.29-.27,4.49-.1,6.71.14,1.62.37,3.24.71,4.82-8.59-3.34-15.24-6.2-18.3-8.01-13.34-7.86-45.08-9.14-63.24-28.02-18.16-18.88-29.18-7.9-52.18-18-13.67-6-24.25-14.1-34.97-22.34.87-3,1.8-5.97,2.81-8.92l.59-1.74.62-1.73c.41-1.14.82-2.33,1.25-3.41.86-2.2,1.85-4.33,2.93-6.39.54-1.03,1.1-2.05,1.68-3.05.59-1,1.19-1.98,1.81-2.94,1.25-1.92,2.57-3.78,4.01-5.47.71-.85,1.46-1.66,2.23-2.4.78-.73,1.52-1.46,2.22-2.21.36-.36.7-.74,1.07-1.08.36-.33.73-.66,1.12-.9.77-.51,1.59-.71,2.25-.51.33.09.6.37.73.74.13.38.14.82.18,1.25.02.44.14.84.2,1.31l.22,1.44c.16,1,.36,2.1.42,3.18.07,1.09.05,2.18-.06,3.28-.22,2.19-.79,4.39-1.69,6.5-.91,2.11-2.1,4.16-3.52,6.08-1.42,1.92-3.08,3.71-4.85,5.39-1.78,1.67-3.72,3.23-5.78,4.6h0c-.08.06-.11.16-.07.25.04.1.16.15.26.11,2.35-.94,4.56-2.17,6.7-3.55,2.14-1.38,4.16-2.98,6.03-4.78,1.87-1.8,3.59-3.83,5-6.12,1.42-2.28,2.54-4.82,3.21-7.52.33-1.35.56-2.74.68-4.14.1-1.4.15-2.8-.06-4.25-.11-.72-.3-1.46-.57-2.2-.27-.73-.62-1.48-1.16-2.15-.54-.67-1.22-1.27-1.97-1.78-.74-.51-1.52-.96-2.33-1.35-.81-.39-1.69-.6-2.55-.72-.86-.11-1.7-.11-2.52-.05-1.63.12-3.19.48-4.59,1.05-1.4.57-2.64,1.36-3.71,2.29-1.09.91-2.1,1.87-3.04,2.88-3.75,4.03-6.51,8.68-8.53,13.57-1.01,2.45-1.82,4.96-2.51,7.49-.35,1.28-.6,2.5-.89,3.74l-.43,1.85-.37,1.87c-.07.35-.13.7-.2,1.05-.02-.18-.04-.35-.06-.53l-.25-2.27-.12-1.13c-.05-.37-.1-.73-.15-1.1-.1-.61-.22-1.21-.36-1.81.08-.33.16-.66.25-.99,1.28-5.05,2.75-10.04,4.46-14.94.4-1.23.87-2.44,1.3-3.66.47-1.21.91-2.43,1.41-3.62.95-2.41,1.99-4.77,3.07-7.12,2.2-4.67,4.59-9.2,7.43-13.37,1.42-2.08,2.96-4.05,4.66-5.84,1.7-1.78,3.57-3.38,5.64-4.61,2.07-1.22,4.37-2.07,6.81-2.31,1.22-.12,2.47-.09,3.72.1,1.24.2,2.51.53,3.68,1.07h.02c.08.05.17.03.23-.04.07-.08.06-.21-.02-.28-2.07-1.82-4.77-2.88-7.61-3.17-2.85-.3-5.8.23-8.45,1.35-1.34.54-2.6,1.23-3.8,2.01-1.2.77-2.33,1.64-3.39,2.56-1.07.92-2.06,1.91-3.01,2.93-.48.51-.93,1.04-1.38,1.56-.44.54-.88,1.07-1.29,1.62-1.7,2.18-3.17,4.5-4.55,6.85-.67,1.19-1.32,2.38-1.94,3.59-.32.6-.61,1.21-.9,1.82l-.87,1.83c-2.25,4.91-4.19,9.93-5.82,15.05-.82,2.56-1.54,5.14-2.24,7.73-.09.34-.17.69-.26,1.03-.23-.75-.44-1.5-.6-2.25-.34-1.45-.52-2.91-.75-4.38-.32-2.29-.51-4.6-.48-6.9,2.83-2.05,5.15-4.38,6.28-7.15,2.21-5.39,2.15-9.29-.23-11.6,1.43-2.01,3-3.95,4.57-5.98,1.79-2.3,3.57-4.69,5.24-7.21.42-.63.83-1.26,1.23-1.91.2-.32.4-.65.59-.97.19-.32.39-.65.59-1.01.79-1.4,1.51-2.85,2.12-4.36l.44-1.13c.14-.38.26-.78.39-1.16.27-.77.48-1.57.69-2.35.39-1.59.71-3.2.85-4.84.29-3.25.08-6.59-1.05-9.6-.27-.75-.62-1.47-.99-2.17-.39-.69-.82-1.35-1.3-1.97-.97-1.23-2.05-2.34-3.36-3.19-.08-.05-.19-.04-.25.03-.07.08-.07.21,0,.28h.01c1.06,1.01,1.92,2.24,2.57,3.52.33.64.59,1.32.82,1.99.2.68.39,1.36.49,2.06.23,1.39.27,2.79.1,4.16-.16,1.38-.52,2.72-1.01,4.02-.97,2.6-2.51,4.95-4.18,7.18-.83,1.12-1.71,2.2-2.6,3.29-.9,1.11-1.86,2.29-2.74,3.47-1.8,2.36-3.54,4.81-5.15,7.45-.79,1.32-1.56,2.69-2.25,4.11-.63,1.28-1.19,2.63-1.72,3.98-3.73-.42-8.82.11-15.31,1.63-1.04-1.69-2.15-3.34-3.39-4.92-.42-.55-.86-1.09-1.29-1.62-.45-.53-.91-1.05-1.38-1.56-.95-1.02-1.94-2.01-3.01-2.93-1.06-.92-2.19-1.79-3.39-2.56-1.2-.78-2.46-1.46-3.8-2.01-2.65-1.11-5.6-1.64-8.45-1.35-.22.02-.45.06-.67.09l5.71-16.83c.51-1.49.34-3.14-.5-4.47-1.08-1.7-3.03-3.63-6.35-3.65-2.06-.01-3.84,1.44-4.29,3.46l-1.15,5.18c-1.56-2.12-4.15-4.28-8.28-4.26-.96,0-1.87.25-2.68.67l6.47-19.81c.67-2.04.42-4.28-.75-6.08-1.49-2.3-4.18-4.89-8.7-4.87-2.81.01-5.21,2.02-5.79,4.77l-8.44,40.01s-.09-.09-.13-.14l8.27-47.16c.41-2.32-.21-4.73-1.77-6.51-1.98-2.27-5.32-4.67-10.24-3.94-.51.08-1,.22-1.46.4l5.09-23.24c.73-3.31-.92-6.73-4.01-8.13-4.98-2.27-9.23-2.54-12.02-.75-2.18,1.4-3.57,5.55-3.85,8.13l-4.43,41.01.56-34.19c.04-2.59-1.05-6.18-3.04-7.84-2.54-2.12-6.58-3.08-11.79-1.45-3.24,1.02-5.3,4.2-4.99,7.58l5.27,57.54-5.22-38.87c-.31-2.34-1.63-4.45-3.65-5.67-2.06-1.25-4.98-2.32-8.36-1.58,3-2.08,5.57-5,5.57-10.93-.02-11.64-14.67-12.51-23.67-11.94,1.32-4.83,2.8-9.6,4.42-14.33l.75-2.2.79-2.19c.53-1.45,1.04-2.95,1.58-4.32,1.09-2.78,2.35-5.49,3.72-8.11.68-1.31,1.4-2.6,2.13-3.87.75-1.26,1.5-2.51,2.29-3.73,1.58-2.44,3.26-4.79,5.08-6.94.91-1.08,1.85-2.1,2.83-3.04.99-.92,1.93-1.85,2.82-2.8.45-.46.89-.94,1.35-1.38.46-.42.93-.83,1.42-1.15.98-.65,2.02-.9,2.86-.64.42.12.76.47.92.94.16.48.18,1.04.22,1.59.03.55.17,1.07.25,1.66l.28,1.83c.2,1.27.45,2.66.53,4.03.09,1.38.06,2.77-.07,4.16-.28,2.78-1.01,5.56-2.15,8.25-1.15,2.68-2.66,5.28-4.47,7.71-1.8,2.44-3.9,4.7-6.15,6.84-2.26,2.12-4.71,4.1-7.33,5.83h-.01c-.1.07-.14.2-.09.31.05.13.2.19.33.14,2.97-1.2,5.78-2.76,8.5-4.5,2.71-1.75,5.27-3.78,7.65-6.06,2.37-2.29,4.55-4.86,6.35-7.76,1.79-2.89,3.23-6.11,4.07-9.54.42-1.71.71-3.47.86-5.24.13-1.78.19-3.55-.08-5.4-.13-.92-.38-1.86-.72-2.78-.34-.92-.79-1.88-1.47-2.73-.68-.85-1.55-1.61-2.5-2.25-.94-.65-1.92-1.22-2.96-1.71-1.03-.49-2.15-.77-3.23-.91-1.09-.13-2.16-.14-3.19-.06-2.07.15-4.04.61-5.82,1.33-1.78.72-3.35,1.73-4.71,2.9-1.38,1.16-2.66,2.37-3.85,3.65-4.75,5.11-8.26,11.01-10.82,17.21-1.28,3.1-2.3,6.29-3.18,9.5-.44,1.63-.76,3.16-1.14,4.74l-.54,2.35-.47,2.37c-.09.44-.17.89-.26,1.33-.02-.22-.05-.45-.07-.67l-.31-2.87-.16-1.44c-.06-.46-.12-.93-.2-1.39-.12-.77-.28-1.53-.45-2.29.1-.42.21-.84.31-1.25,1.62-6.4,3.49-12.73,5.66-18.95.51-1.56,1.1-3.1,1.65-4.65.6-1.53,1.15-3.08,1.79-4.59,1.21-3.05,2.53-6.05,3.89-9.03,2.79-5.93,5.82-11.67,9.42-16.96,1.8-2.64,3.75-5.14,5.91-7.41,2.16-2.26,4.52-4.29,7.16-5.85,2.63-1.55,5.54-2.63,8.64-2.92,1.55-.15,3.13-.11,4.72.13,1.58.25,3.19.67,4.67,1.35h.02c.1.06.22.03.3-.05.09-.1.08-.26-.02-.36-2.62-2.3-6.06-3.65-9.65-4.03-3.61-.38-7.35.3-10.72,1.71-1.7.69-3.3,1.56-4.82,2.54-1.53.97-2.95,2.08-4.3,3.25-1.36,1.17-2.62,2.42-3.82,3.72-.6.65-1.18,1.31-1.76,1.98-.55.68-1.11,1.36-1.64,2.06-2.16,2.77-4.03,5.71-5.77,8.69-.85,1.51-1.68,3.02-2.46,4.55-.4.76-.77,1.53-1.14,2.31l-1.1,2.32c-2.85,6.22-5.32,12.6-7.38,19.09-1.05,3.24-1.95,6.52-2.84,9.8-.11.44-.22.87-.33,1.31-.29-.95-.56-1.9-.76-2.85-.43-1.84-.66-3.7-.95-5.55-.52-3.71-.77-7.45-.53-11.15.11-1.85.34-3.68.65-5.49.35-1.8.76-3.58,1.35-5.29,1.12-3.44,2.84-6.59,4.82-9.54,2.01-2.95,4.29-5.73,6.56-8.65,2.27-2.92,4.53-5.95,6.65-9.15.53-.8,1.05-1.6,1.56-2.43.26-.41.5-.82.75-1.24.24-.41.5-.82.75-1.28,1-1.77,1.91-3.61,2.68-5.53l.56-1.44c.18-.48.33-.98.5-1.47.34-.97.6-1.99.87-2.98.49-2.02.89-4.06,1.08-6.13.37-4.12.1-8.36-1.34-12.18-.34-.96-.79-1.87-1.26-2.76-.5-.87-1.03-1.72-1.64-2.5-1.23-1.56-2.6-2.97-4.26-4.04-.1-.07-.24-.05-.32.04-.09.1-.09.26.01.36l.02.02c1.35,1.26,2.44,2.82,3.26,4.45.41.82.74,1.67,1.03,2.52.26.87.5,1.73.63,2.61.29,1.76.34,3.54.13,5.28-.2,1.75-.66,3.45-1.28,5.09-1.24,3.29-3.18,6.28-5.3,9.1-1.05,1.42-2.17,2.79-3.29,4.17-1.14,1.41-2.36,2.9-3.48,4.4-2.28,3-4.5,6.1-6.53,9.45-1.01,1.67-1.98,3.41-2.86,5.22-.89,1.8-1.67,3.69-2.4,5.6-.68,1.93-1.3,3.89-1.79,5.87-.47,1.99-.87,3.97-1.15,5.96-.16.99-.26,1.98-.38,2.97-.07.49-.09.99-.14,1.48l-.14,1.47c-.04.98-.14,1.96-.18,2.94-.02.98-.1,1.95-.11,2.92l-.24,11.62v1.97c-.49-1.66-.98-3.32-1.52-4.97-2.07-6.49-4.53-12.87-7.38-19.09l-1.1-2.32c-.36-.77-.74-1.55-1.14-2.31-.78-1.53-1.61-3.05-2.46-4.55-1.75-2.99-3.62-5.92-5.77-8.69-.53-.7-1.09-1.38-1.64-2.06-.58-.67-1.15-1.33-1.76-1.98-1.2-1.3-2.46-2.55-3.82-3.72-1.35-1.17-2.78-2.27-4.3-3.25-1.52-.98-3.12-1.86-4.82-2.54-3.36-1.41-7.11-2.09-10.72-1.71-3.6.38-7.03,1.72-9.65,4.03-.08.07-.11.19-.06.3.06.13.21.18.34.12h.02c1.48-.7,3.09-1.12,4.67-1.37,1.59-.24,3.17-.28,4.72-.13,3.1.3,6.01,1.37,8.64,2.92,2.63,1.56,5,3.59,7.16,5.85,2.15,2.27,4.1,4.78,5.91,7.41,3.6,5.28,6.63,11.03,9.42,16.96,1.37,2.98,2.69,5.98,3.89,9.03.63,1.51,1.19,3.06,1.79,4.59.55,1.55,1.14,3.08,1.65,4.65,1.79,5.14,3.37,10.36,4.78,15.63-1-2.87-2.12-5.7-3.42-8.47-3.57-7.64-8.3-14.85-14.51-20.96-1.57-1.52-3.21-2.97-4.99-4.32-1.77-1.36-3.77-2.49-5.96-3.31-2.2-.81-4.57-1.32-7.04-1.47-2.45-.14-5.1.1-7.54,1.21-1.21.54-2.39,1.19-3.51,1.97-1.11.78-2.13,1.71-2.89,2.77-.31.42-.56.85-.8,1.3-11.55,4.02-24.29,9.43-38.02.97-1.25-.77-2.41-1.47-3.49-2.1,1.91-1.31,3.96-2.55,5.88-3.72l.85-.52.96.25c3.19.84,4.77,1.14,9.98,2.12l4.28.81c.8.15,1.6.23,2.39.23,2.96,0,5.03-1.05,6.01-1.85-.77.05-1.53.07-2.27.07-6.38,0-10.41-1.78-12.68-3.28-1.02-.68-1.59-1.85-1.48-3.07.11-1.22.88-2.28,2-2.77,2.78-1.2,9.75-4.24,14.27-6.51,3.5-1.75,5.22-3.34,5.78-4.17-.06,0-.13,0-.22,0-2.2,0-6.47,1.98-8.64,3.23l-2.34-4.07s-.08.03-.21.14c.06-.05,1.39-1.22,4.38-7.03,1.55-3.01,4.74-5.9,7.55-8.44,1.23-1.12,2.95-2.67,3.82-3.71-.22-.04-.5-.08-.83-.11-.19-.02-.39-.03-.58-.03-6.25,0-13.37,10.16-17.62,16.24-1.64,2.35-2.94,4.2-4.02,5.33-5.85,6.16-8.68,6.87-10.3,6.87-1.76,0-3.2-.98-3.94-2.68-1.31-3,1.57-6.95,8.45-15.24,2.24-2.69,5.3-6.38,5.62-7.44,1.4-5.96,14.41-16.27,15.89-17.42,2.64-2.06,3.48-3.76,3.39-4.58-.01-.11-.04-.19-.07-.25-.44.26-1.18.88-1.75,1.35-2.01,1.66-4.77,3.93-8.83,5.05-2.5.69-3.86,3.15-4.76,4.77-.72,1.3-1.47,2.65-3.14,2.65h0c-1.38,0-2.33-.91-2.83-2.7-1.27-4.58.91-17.36,1.96-20.29.09-.26.2-.56.32-.87.37-.99,1.45-3.9,1.26-4.92-.07-.01-.18-.02-.33-.02s-.3.01-.47.03c-1.39.16-2.56,3.13-3.34,5.1-1.01,2.54-1.96,4.95-4.4,4.95h0c-2.06,0-3.22-1.98-3.65-2.72-.63-1.07-1.36-2.03-2.18-2.87l-1.55-1.58,1.48-1.65c4.92-5.45,6.77-11.34,6.95-14.57-.94,1.13-2.36,3.07-4.52,6.35-3.71,5.65-7.06,8.4-10.22,8.4-1.6,0-3.04-.71-4.15-2.04-1.77-2.12-2.91-8.75-4.23-24.48l-.12-1.41c-.06-.69-.34-2.3-1.61-2.3-.31,0-.63.1-.86.28-.58,1.37-.42,6.73-.36,9.05.11,3.65.13,4.52-.73,5.41l-.73.73h-1.39s-.36-.12-.36-.12c-1.01-.34-1.47-1.12-2.15-2.3-1.72-2.94-2.57-3.56-3.02-3.56,0,0-.11.02-.13.02-.19.49-.01,2.52,1.77,5.9.43.81,1.75,2.18,3.02,3.49,4.15,4.28,10.41,10.74,7.01,18.48-3.8,8.66-4.01,16.27-3.83,21.23.2,5.61-2.51,17.34-5.13,20.05-.83.86-1.69,1.04-2.26,1.04h-.18s-.13-.02-.13-.02c-3.39-.38-5.66-4.67-7.04-13.41,1.61-4.04,2.49-9.1.9-16.11,1.5-5.03,3.75-9.73,5.39-13.15.82-1.71,1.75-3.65,1.85-4.15.13-1.7-.3-3.2-.63-3.43-.07,0-.49.03-1.32.53-2.01,1.23-4.23,10.17-5.42,14.98-.21.85-.41,1.65-.6,2.39-6.93-25.35,1.7-14.69,9.45-19.48,6.23-3.85-2.4-17.47-18.06-26.95l12.06-21.27c.64-1.13.76-2.5.29-3.71-.61-1.55-1.9-3.41-4.59-3.94-1.67-.33-3.34.58-4.02,2.14l-1.74,4.02c-.93-1.96-2.71-4.11-6.05-4.74-.78-.14-1.55-.09-2.28.13l8.32-15.07c.86-1.55,1-3.41.33-5.05-.85-2.09-2.63-4.61-6.31-5.3-2.28-.42-4.54.84-5.43,2.97l-14.47,34.54,15.35-40.5c.69-1.82.56-3.87-.42-5.55-1.26-2.15-3.59-4.62-7.69-4.79-.43-.02-.84.02-1.25.1l7.73-18.07c1.1-2.58.29-5.6-1.99-7.22-3.68-2.61-7.09-3.49-9.63-2.47-1.99.8-3.76,3.95-4.38,6l-9.95,32.58,5.76-27.65c.44-2.1.11-5.17-1.25-6.83-1.73-2.12-4.86-3.52-9.34-3-2.78.32-4.95,2.58-5.22,5.37l-4.64,47.5,1.79-32.34c.11-1.95-.64-3.86-2.08-5.16-1.85-1.67-4.81-3.32-8.78-2.24-2.46.67-4.1,3-3.96,5.54l.75,14.14-.83,3.74-1.05-6.34c-.32-1.92-1.46-3.63-3.16-4.59-1.04-.59-2.33-1.11-3.78-1.29l3.21-9.83c.67-2.04.42-4.28-.75-6.08-1.49-2.3-4.18-4.89-8.7-4.87-2.81.01-5.21,2.02-5.79,4.77l-9.35,44.36,9.06-51.65c.41-2.32-.21-4.73-1.77-6.51-1.98-2.27-5.32-4.67-10.24-3.94-.51.08-1,.22-1.46.4l5.09-23.24c.73-3.31-.92-6.73-4.01-8.13-4.98-2.27-9.23-2.54-12.02-.75-2.18,1.4-3.57,5.55-3.85,8.13l-4.43,41.01.56-34.19c.04-2.59-1.05-6.18-3.04-7.84-2.54-2.12-6.58-3.08-11.79-1.45-3.24,1.02-5.3,4.2-4.99,7.58l5.27,57.54-5.22-38.87c-.31-2.34-1.63-4.45-3.65-5.67-2.58-1.56-6.48-2.85-10.95-.67-2.77,1.35-4.19,4.49-3.46,7.49l7.82,31.76-6.56-17.78c-.82-2.21-2.56-3.98-4.8-4.74-2.85-.96-6.94-1.37-10.83,1.74-2.41,1.93-3.11,5.3-1.74,8.06l8.06,16.22c-.73.22-1.48.59-2.21,1.18-1.42,1.13-1.83,3.12-1.02,4.75l10.41,20.94-2.41,3.01-9.07-24.6c-.48-1.3-1.51-2.34-2.82-2.79-1.68-.57-4.09-.81-6.38,1.02-1.42,1.13-1.83,3.12-1.02,4.75l2.08,4.19c-1.42-.14-3.07.13-4.66,1.4-1.42,1.13-1.83,3.12-1.02,4.75l24.85,50,1.93.03C10.61,377.02,0,392.91,0,392.91v657.92h520.97s378.03-38.98,384.6-45.54c6.58-6.56,41.42-53.44,10.45-79.72ZM205.96,433.33c.53-1.68.75-3.43.64-5.2-.28-4.62-.09-13.45,4.24-20.63,1.67-2.77,3.82-5.05,6.39-6.79.57-.39,1.12-.79,1.65-1.19l1.93-1.47,1.41,1.98c.28.4.58.81.89,1.23,2.09,2.88,4.69,6.45,5.78,10.79,1.46,5.84,2.64,19.06.11,22.29-.6.77-1.43,1.19-2.34,1.19h-.17s-.12-.01-.12-.01c-2.33-.23-3.71-2.92-6.6-8.98-1.27-2.66-2.98-6.25-4.08-7.52-.2,1.17-.11,3.86,1.84,8.35,3.52,8.1,3.93,14.84,1.25,20.59-1.58,3.38-11.45,12.61-15.71,12.61-.21,0-.4-.02-.58-.05-.79-.13-1.46-.59-1.88-1.29-.7-1.15-1.88-3.07,5.36-25.89Zm-16.1,13.58c.87,2.88.71,5.16-.48,6.76-.32.43-.71.8-1.16,1.09-7.88-7.52-5.52-11.57-2.25-17.08,1.75,3.6,3.19,6.92,3.89,9.23Zm-25.07-88.11c-.4-.16-.78-.33-1.16-.5l4.25-7.69-3.09,8.19Zm-9.97-39.86l-.45,1.74-.43.32.88-2.06Zm-77.07-30.26l-.14,2.18-.44.47.58-2.65Zm390.93,378.05c.08.24.18.49.26.73,1.41,4.05,2.66,8.17,3.77,12.32-.79-2.26-1.67-4.5-2.69-6.68-.88-1.89-1.87-3.73-2.93-5.54.53-.28,1.06-.56,1.6-.84Zm6.51,1.41v1.55c-.39-1.31-.78-2.62-1.19-3.92-.17-.54-.36-1.07-.54-1.61.62-.35,1.24-.71,1.84-1.07l-.11,5.05Zm-36.57-41.21c2.44.23,4.74,1.08,6.81,2.31,2.08,1.23,3.94,2.83,5.64,4.61,1.7,1.79,3.23,3.76,4.66,5.84.73,1.07,1.43,2.17,2.11,3.29-.98.28-1.98.57-3.01.88-8.13,2.48-15.81,1.3-22.81-1.74l5.17-15.25c.48,0,.96.02,1.43.06Zm-13.91,11.23c-.16-.1-.31-.2-.47-.3l1.39-3.81-.92,4.11Zm-9.45-17.69l-1.57,9.02c-.36-.33-.71-.66-1.06-.99l2.63-8.04Zm-22.73-34.7l-.14,2.18-.44.47.58-2.65Zm-50.22-28.66c-1.02,1.51-1.4,3.43-.94,5.3l5.93,24.08c-1.26-2.37-2.46-4.79-3.6-7.21l-1.07-2.89c-.3-.82-.73-1.58-1.27-2.25-.58-1.33-1.14-2.64-1.68-3.93-3.27-7.9-.95-10.8,2.62-13.1Zm117.89,114.68c1.01,1.57,1.98,3.17,2.89,4.82,1.44,2.63,2.77,5.33,3.9,8.13.05.12.1.25.15.38-1.01-.65-2.03-1.29-3.07-1.92-8.06-4.88-7.7-8.27-3.88-11.4Zm271.16,127.94c.53-1.45,1.04-2.95,1.58-4.32,1.09-2.78,2.35-5.49,3.72-8.11.68-1.31,1.4-2.6,2.13-3.87.75-1.26,1.5-2.51,2.29-3.73,1.58-2.44,3.26-4.79,5.08-6.94.91-1.08,1.85-2.1,2.83-3.04.99-.92,1.93-1.85,2.82-2.8.45-.46.89-.94,1.35-1.38.46-.42.93-.83,1.42-1.15.98-.65,2.02-.9,2.86-.64.43.12.76.47.92.94.16.48.18,1.04.22,1.59.03.55.17,1.07.25,1.66l.28,1.83c.2,1.27.45,2.66.53,4.03.09,1.38.06,2.77-.07,4.16-.28,2.78-1.01,5.56-2.15,8.25-1.15,2.68-2.66,5.28-4.47,7.71-1.8,2.44-3.9,4.7-6.15,6.84-1.06.99-2.16,1.95-3.29,2.86-3.12-.47-7.43-1.45-12.56-2.79l.4-1.11Zm-68.37-23.38c-.26-1.79-.34-3.6-.28-5.38.06-1.78.29-3.6.59-5.27.14-.84.28-1.65.44-2.43.16-.78.38-1.5.54-2.21.17-.71.31-1.44.62-2.08.29-.65.79-1.16,1.42-1.41,1.27-.49,2.81-.3,4.27.36,1.46.67,2.82,1.73,4.13,2.85,2.58,2.28,5.41,4.45,7.89,7.16,1.26,1.32,2.47,2.73,3.62,4.18,1.17,1.44,2.28,2.95,3.36,4.48,2.16,3.07,4.14,6.29,5.98,9.61.84,1.54,1.65,3.1,2.43,4.69-11.9-3.9-24.13-8.17-34.56-12.06-.19-.83-.34-1.66-.46-2.49Z"/>
      <path class="cls-1" d="m2628.47,290.53c.06.33.35.85.6,1.34-.18-.43-.38-.87-.6-1.34Z"/>
      <path class="cls-1" d="m2629.45,292.82c-.03-.24-.19-.59-.38-.95.02.05.04.1.06.14.16.31.29.59.32.8Z"/>
      <path class="cls-1" d="m2653.6,375.42c.36-.08.75-.14.92-.25-.33.08-.63.16-.92.25Z"/>
      <path class="cls-1" d="m2652.99,375.62c.1-.07.3-.12.52-.17.03,0,.06-.02.09-.03-.26.06-.5.12-.62.2Z"/>
      <path class="cls-1" d="m2556.55,111.14c-5.92,7.56-7.91,8.51-5.22,10.46-1.34.51-1.06,1.36.66,2.55,1.72,1.19,6.51,3.07,9.38,5,2.87,1.93,12.72,6.52,20.2,5.96,3.86,2.86,10.77,9.22,16.92,10.75-.6-2.03-.51-2.75-.63-5.19-1.2-2.66-7.04-5.98-7.04-5.98,0,0,9.25-1.83,11.39-1.56,2.39.94,8.15,3.57,18.2,3.93,10.04.36,14.13-2.07,15.45-2.76,1.32-.69,3.18-2.67,3.18-2.67,0,0-.04-.35-2.48-1.63-2.44-1.28-2.42-1.11-3.36-3.1-.94-1.99-2.15-3.25-3.01-4.55-.86-1.3-2.5-3.2-2.5-3.2,0,0,6.85.04,9.91.72,3.07.68,9.97,2.65,11.29,1.96,1.32-.69,1.14-3.65,2.19-3.6,1.06.05,7.08,1.95,9.13,1.52-2.44-1.28-1.03-1.28-2.91-2.28-1.88-1-3.24-.66-3.24-.66l.68-1.66s-2.84-3.16-4.25-3.17c2.42-1.7,3.23-3.73,3.58-5.17.35-1.45,1.69-1.96,1.69-1.96,0,0-2.31-1.65-.16-2.79.93-.49,2.18-.47,3.35-.21-2.23-1-2.51-1.04-3.18-1.21-.91-.24-.56-1.69-2.78-1.24-2.23.45-9.58,3.45-13.11,4.75-3.53,1.31-7.16,3.15-11.41,2.79,3.42-3.57,5.31-5.38,5.06-7.46-.25-2.07-.88-8.67.68-8.85-2.2-.78-5.46-1.62-9.22-.81-3.76.81-4.91,2.88-8.41,2.95-3.5.08-9.84-1.61-13.77-2.18-3.93-.57-10.17-1.39-15.45-.05-5.28,1.34-10.98,2.04-14.69,7.58,0,0-10.21,5.45-16.13,13.02Z"/>
      <path class="cls-1" d="m2658.98,101.85c.81.36,1.86.84,3.3,1.51-.35-.45-1.76-1.18-3.3-1.51Z"/>
      <path class="cls-1" d="m2569.19,12.93c.48.29,1.11.68,1.95,1.2-.19-.31-1.01-.86-1.95-1.2Z"/>
      <path class="cls-1" d="m2499.06,18.83c1.01.9,3.92,2.47,5.6,3.92,1.68,1.46,7.62,5.16,12.44,5.38,2.24,2.13,6.17,6.73,9.98,8.18-.22-1.35-.11-1.79,0-3.36-.56-1.79-4.04-4.37-4.04-4.37,0,0,6.05-.45,7.4-.11,1.46.78,4.93,2.91,11.32,3.92,6.39,1.01,9.19-.22,10.09-.56.9-.34,2.24-1.46,2.24-1.46,0,0,0-.22-1.46-1.23-1.46-1.01-1.46-.9-1.91-2.24-.45-1.35-1.12-2.24-1.57-3.14-.45-.9-1.35-2.24-1.35-2.24,0,0,4.37.56,6.28,1.23,1.91.67,6.17,2.47,7.06,2.13.9-.34,1.01-2.24,1.68-2.13.67.11,4.37,1.79,5.72,1.68-1.46-1.01-.56-.9-1.68-1.68-1.12-.78-2.02-.67-2.02-.67l.56-1.01s-1.57-2.24-2.47-2.35c1.68-.9,2.35-2.13,2.69-3.03.34-.9,1.23-1.12,1.23-1.12,0,0-1.35-1.23.11-1.79.64-.25,1.46-.12,2.2.15-1.39-.83-1.56-.88-1.97-1.04-.56-.22-.22-1.12-1.68-1.01-1.46.11-6.39,1.46-8.74,2.02-2.35.56-4.82,1.46-7.51.9,2.47-2.02,3.81-3.03,3.81-4.37s.11-5.6,1.12-5.6c-1.35-.67-3.36-1.46-5.83-1.23-2.47.22-3.36,1.46-5.6,1.23-2.24-.22-6.17-1.79-8.63-2.47-2.47-.67-6.39-1.68-9.86-1.23-3.47.45-7.17.45-9.98,3.7,0,0-6.95,2.69-11.32,7.06-4.37,4.37-5.72,4.82-4.15,6.28-.9.22-.78.78.22,1.68Z"/>
      <path class="cls-1" d="m2350.94,381c-.46.54-.15.84.88.96,1.03.12,3.55-.19,5.25-.02,1.7.17,7.07-.13,10.19-2.13,2.35.35,6.85,1.49,9.88.72-.74-.75-.86-1.08-1.49-2.11-1.15-.88-4.47-.96-4.47-.96,0,0,3.6-2.96,4.59-3.34,1.26-.15,4.39-.35,8.84-2.54,4.46-2.19,5.67-4.21,6.09-4.81.41-.61.76-1.91.76-1.91,0,0-.1-.14-1.46-.13s-1.31.08-2.19-.56c-.88-.65-1.7-.91-2.37-1.28-.68-.36-1.84-.81-1.84-.81,0,0,2.99-1.58,4.49-2,1.49-.42,4.96-1.18,5.38-1.79.41-.61-.36-1.85.11-2.08s3.54-.81,4.33-1.47c-1.36.01-.75-.32-1.8-.31s-1.56.47-1.56.47l-.09-.88s-1.98-.71-2.59-.39c.66-1.31.54-2.38.35-3.09-.19-.71.28-1.25.28-1.25,0,0-1.39-.18-.72-1.18.29-.44.86-.72,1.44-.88-1.24.09-1.37.14-1.7.22-.45.11-.64-.6-1.5.11-.87.71-3.37,3.74-4.6,5.13-1.23,1.39-2.38,3.05-4.32,3.89.66-2.36,1.05-3.59.46-4.43-.59-.84-2.41-3.57-1.78-4.01-1.14.17-2.76.57-4.2,1.8-1.45,1.23-1.47,2.4-2.97,3.25s-4.66,1.6-6.51,2.27c-1.85.67-4.75,1.77-6.74,3.59-1.98,1.82-4.31,3.45-4.63,6.73,0,0-3.17,4.76-3.98,9.44-.81,4.68-1.46,5.55.17,5.78Z"/>
      <path class="cls-1" d="m2393.23,347.23c.43-.03,1-.07,1.75-.11-.26-.11-1.02-.09-1.75.11Z"/>
    </g>
  </g>
</svg>